<!-- Rendered from ai-platform-map.mmd with scripts/render-mermaid.py (Mermaid 11). Edit the .mmd and re-render; do not hand-edit. -->
<svg id="pmap" width="100%" xmlns="http://www.w3.org/2000/svg" class="flowchart" viewBox="0 0 1474.4 801.9" role="graphics-document document" aria-roledescription="flowchart-v2"><style>#pmap{font-family:Inter,sans-serif;font-size:13px;fill:#1c1c1c;}@keyframes edge-animation-frame{from{stroke-dashoffset:0;}}@keyframes dash{to{stroke-dashoffset:0;}}#pmap .edge-animation-slow{stroke-dasharray:9,5!important;stroke-dashoffset:900;animation:dash 50s linear infinite;stroke-linecap:round;}#pmap .edge-animation-fast{stroke-dasharray:9,5!important;stroke-dashoffset:900;animation:dash 20s linear infinite;stroke-linecap:round;}#pmap .error-icon{fill:#ffffff;}#pmap .error-text{fill:#000000;stroke:#000000;}#pmap .edge-thickness-normal{stroke-width:1px;}#pmap .edge-thickness-thick{stroke-width:3.5px;}#pmap .edge-pattern-solid{stroke-dasharray:0;}#pmap .edge-thickness-invisible{stroke-width:0;fill:none;}#pmap .edge-pattern-dashed{stroke-dasharray:3;}#pmap .edge-pattern-dotted{stroke-dasharray:2;}#pmap .marker{fill:#4a4a4a;stroke:#4a4a4a;}#pmap .marker.cross{stroke:#4a4a4a;}#pmap svg{font-family:Inter,sans-serif;font-size:13px;}#pmap p{margin:0;}#pmap .label{font-family:Inter,sans-serif;color:#1c1c1c;}#pmap .cluster-label text{fill:#1c1c1c;}#pmap .cluster-label span{color:#1c1c1c;}#pmap .cluster-label span p{background-color:transparent;}#pmap .label text,#pmap span{fill:#1c1c1c;color:#1c1c1c;}#pmap .node rect,#pmap .node circle,#pmap .node ellipse,#pmap .node polygon,#pmap .node path{fill:#ffffff;stroke:#1c1c1c;stroke-width:1px;}#pmap .rough-node .label text,#pmap .node .label text,#pmap .image-shape .label,#pmap .icon-shape .label{text-anchor:middle;}#pmap .node .katex path{fill:#000;stroke:#000;stroke-width:1px;}#pmap .rough-node .label,#pmap .node .label,#pmap .image-shape .label,#pmap .icon-shape .label{text-align:center;}#pmap .node.clickable{cursor:pointer;}#pmap .root .anchor path{fill:#4a4a4a!important;stroke-width:0;stroke:#4a4a4a;}#pmap .arrowheadPath{fill:#0b0b0b;}#pmap .edgePath .path{stroke:#4a4a4a;stroke-width:1px;}#pmap .flowchart-link{stroke:#4a4a4a;fill:none;}#pmap .edgeLabel{background-color:#ffffff;text-align:center;}#pmap .edgeLabel p{background-color:#ffffff;}#pmap .edgeLabel rect{opacity:0.5;background-color:#ffffff;fill:#ffffff;}#pmap .labelBkg{background-color:rgba(255, 255, 255, 0.5);}#pmap .cluster rect{fill:#ffffff;stroke:#dcdcd6;stroke-width:1px;}#pmap .cluster text{fill:#1c1c1c;}#pmap .cluster span{color:#1c1c1c;}#pmap .node .collapsed-indicator{fill:#dcdcd6;stroke:none;opacity:0.6;}#pmap .node .collapsed-separator{stroke:#dcdcd6;stroke-width:0.75px;}#pmap div.mermaidTooltip{position:absolute;text-align:center;max-width:200px;padding:2px;font-family:Inter,sans-serif;font-size:12px;background:#ffffff;border:1px solid hsl(0, 0%, 90%);border-radius:2px;pointer-events:none;z-index:100;}#pmap .flowchartTitleText{text-anchor:middle;font-size:18px;fill:#1c1c1c;}#pmap rect.text{fill:none;stroke-width:0;}#pmap .icon-shape,#pmap .image-shape{background-color:#ffffff;text-align:center;}#pmap .icon-shape p,#pmap .image-shape p{background-color:#ffffff;padding:2px;}#pmap .icon-shape .label rect,#pmap .image-shape .label rect{opacity:0.5;background-color:#ffffff;fill:#ffffff;}#pmap .label-icon{display:inline-block;height:1em;overflow:visible;vertical-align:-0.125em;}#pmap .node .label-icon path{fill:currentColor;stroke:revert;stroke-width:revert;}#pmap .node .neo-node{stroke:#1c1c1c;}#pmap [data-look="neo"].node rect,#pmap [data-look="neo"].cluster rect,#pmap [data-look="neo"].node polygon{stroke:url(#pmap-gradient);filter:drop-shadow( 1px 2px 2px rgba(185,185,185,1));}#pmap [data-look="neo"].swimlane.cluster rect{filter:none;}#pmap [data-look="neo"].node path{stroke:url(#pmap-gradient);stroke-width:1px;}#pmap [data-look="neo"].node .outer-path{filter:drop-shadow( 1px 2px 2px rgba(185,185,185,1));}#pmap [data-look="neo"].node .neo-line path{stroke:#1c1c1c;filter:none;}#pmap [data-look="neo"].node circle{stroke:url(#pmap-gradient);filter:drop-shadow( 1px 2px 2px rgba(185,185,185,1));}#pmap [data-look="neo"].node circle .state-start{fill:#000000;}#pmap [data-look="neo"].icon-shape .icon{fill:url(#pmap-gradient);filter:drop-shadow( 1px 2px 2px rgba(185,185,185,1));}#pmap [data-look="neo"].icon-shape .icon-neo path{stroke:url(#pmap-gradient);filter:drop-shadow( 1px 2px 2px rgba(185,185,185,1));}#pmap :root{--mermaid-font-family:"trebuchet ms",verdana,arial,sans-serif;}#pmap .solid rect{fill:rgb(255, 255, 255)!important;stroke:rgb(28, 28, 28)!important;stroke-width:1.2px!important;color:rgb(28, 28, 28)!important;}#pmap .solid polygon{fill:rgb(255, 255, 255)!important;stroke:rgb(28, 28, 28)!important;stroke-width:1.2px!important;color:rgb(28, 28, 28)!important;}#pmap .solid ellipse{fill:rgb(255, 255, 255)!important;stroke:rgb(28, 28, 28)!important;stroke-width:1.2px!important;color:rgb(28, 28, 28)!important;}#pmap .solid circle{fill:rgb(255, 255, 255)!important;stroke:rgb(28, 28, 28)!important;stroke-width:1.2px!important;color:rgb(28, 28, 28)!important;}#pmap .solid path{fill:rgb(255, 255, 255)!important;stroke:rgb(28, 28, 28)!important;stroke-width:1.2px!important;color:rgb(28, 28, 28)!important;}#pmap .solid tspan{fill:rgb(28, 28, 28)!important;}#pmap .gap rect{fill:rgb(255, 255, 255)!important;stroke:rgb(138, 138, 138)!important;stroke-width:1.2px!important;stroke-dasharray:5,4!important;color:rgb(74, 74, 74)!important;}#pmap .gap polygon{fill:rgb(255, 255, 255)!important;stroke:rgb(138, 138, 138)!important;stroke-width:1.2px!important;stroke-dasharray:5,4!important;color:rgb(74, 74, 74)!important;}#pmap .gap ellipse{fill:rgb(255, 255, 255)!important;stroke:rgb(138, 138, 138)!important;stroke-width:1.2px!important;stroke-dasharray:5,4!important;color:rgb(74, 74, 74)!important;}#pmap .gap circle{fill:rgb(255, 255, 255)!important;stroke:rgb(138, 138, 138)!important;stroke-width:1.2px!important;stroke-dasharray:5,4!important;color:rgb(74, 74, 74)!important;}#pmap .gap path{fill:rgb(255, 255, 255)!important;stroke:rgb(138, 138, 138)!important;stroke-width:1.2px!important;stroke-dasharray:5,4!important;color:rgb(74, 74, 74)!important;}#pmap .gap tspan{fill:rgb(74, 74, 74)!important;}#pmap .key rect{fill:rgb(255, 255, 255)!important;stroke:rgb(160, 44, 30)!important;stroke-width:2px!important;color:rgb(28, 28, 28)!important;}#pmap .key polygon{fill:rgb(255, 255, 255)!important;stroke:rgb(160, 44, 30)!important;stroke-width:2px!important;color:rgb(28, 28, 28)!important;}#pmap .key ellipse{fill:rgb(255, 255, 255)!important;stroke:rgb(160, 44, 30)!important;stroke-width:2px!important;color:rgb(28, 28, 28)!important;}#pmap .key circle{fill:rgb(255, 255, 255)!important;stroke:rgb(160, 44, 30)!important;stroke-width:2px!important;color:rgb(28, 28, 28)!important;}#pmap .key path{fill:rgb(255, 255, 255)!important;stroke:rgb(160, 44, 30)!important;stroke-width:2px!important;color:rgb(28, 28, 28)!important;}#pmap .key tspan{fill:rgb(28, 28, 28)!important;}#pmap .ext rect{fill:rgb(255, 255, 255)!important;stroke:rgb(74, 74, 74)!important;stroke-width:1.2px!important;color:rgb(74, 74, 74)!important;}#pmap .ext polygon{fill:rgb(255, 255, 255)!important;stroke:rgb(74, 74, 74)!important;stroke-width:1.2px!important;color:rgb(74, 74, 74)!important;}#pmap .ext ellipse{fill:rgb(255, 255, 255)!important;stroke:rgb(74, 74, 74)!important;stroke-width:1.2px!important;color:rgb(74, 74, 74)!important;}#pmap .ext circle{fill:rgb(255, 255, 255)!important;stroke:rgb(74, 74, 74)!important;stroke-width:1.2px!important;color:rgb(74, 74, 74)!important;}#pmap .ext path{fill:rgb(255, 255, 255)!important;stroke:rgb(74, 74, 74)!important;stroke-width:1.2px!important;color:rgb(74, 74, 74)!important;}#pmap .ext tspan{fill:rgb(74, 74, 74)!important;}</style><g><marker id="pmap_flowchart-v2-pointEnd" class="marker flowchart-v2" viewBox="0 0 10 10" refX="5" refY="5" markerUnits="userSpaceOnUse" markerWidth="8" markerHeight="8" orient="auto"><path d="M 0 0 L 10 5 L 0 10 z" class="arrowMarkerPath" style="stroke-width: 1; stroke-dasharray: 1, 0;"></path></marker><marker id="pmap_flowchart-v2-pointStart" class="marker flowchart-v2" viewBox="0 0 10 10" refX="4.5" refY="5" markerUnits="userSpaceOnUse" markerWidth="8" markerHeight="8" orient="auto"><path d="M 0 5 L 10 10 L 10 0 z" class="arrowMarkerPath" style="stroke-width: 1; stroke-dasharray: 1, 0;"></path></marker><marker id="pmap_flowchart-v2-pointEnd-margin" class="marker flowchart-v2" viewBox="0 0 11.5 14" refX="11.5" refY="7" markerUnits="userSpaceOnUse" markerWidth="10.5" markerHeight="14" orient="auto"><path d="M 0 0 L 11.5 7 L 0 14 z" class="arrowMarkerPath" style="stroke-width: 0; stroke-dasharray: 1, 0;"></path></marker><marker id="pmap_flowchart-v2-pointStart-margin" class="marker flowchart-v2" viewBox="0 0 11.5 14" refX="1" refY="7" markerUnits="userSpaceOnUse" markerWidth="11.5" markerHeight="14" orient="auto"><polygon points="0,7 11.5,14 11.5,0" class="arrowMarkerPath" style="stroke-width: 0; stroke-dasharray: 1, 0;"></polygon></marker><marker id="pmap_flowchart-v2-circleEnd" class="marker flowchart-v2" viewBox="0 0 10 10" refX="11" refY="5" markerUnits="userSpaceOnUse" markerWidth="11" markerHeight="11" orient="auto"><circle cx="5" cy="5" r="5" class="arrowMarkerPath" style="stroke-width: 1; stroke-dasharray: 1, 0;"></circle></marker><marker id="pmap_flowchart-v2-circleStart" class="marker flowchart-v2" viewBox="0 0 10 10" refX="-1" refY="5" markerUnits="userSpaceOnUse" markerWidth="11" markerHeight="11" orient="auto"><circle cx="5" cy="5" r="5" class="arrowMarkerPath" style="stroke-width: 1; stroke-dasharray: 1, 0;"></circle></marker><marker id="pmap_flowchart-v2-circleEnd-margin" class="marker flowchart-v2" viewBox="0 0 10 10" refY="5" refX="12.2" markerUnits="userSpaceOnUse" markerWidth="14" markerHeight="14" orient="auto"><circle cx="5" cy="5" r="5" class="arrowMarkerPath" style="stroke-width: 0; stroke-dasharray: 1, 0;"></circle></marker><marker id="pmap_flowchart-v2-circleStart-margin" class="marker flowchart-v2" viewBox="0 0 10 10" refX="-2" refY="5" markerUnits="userSpaceOnUse" markerWidth="14" markerHeight="14" orient="auto"><circle cx="5" cy="5" r="5" class="arrowMarkerPath" style="stroke-width: 0; stroke-dasharray: 1, 0;"></circle></marker><marker id="pmap_flowchart-v2-crossEnd" class="marker cross flowchart-v2" viewBox="0 0 11 11" refX="12" refY="5.2" markerUnits="userSpaceOnUse" markerWidth="11" markerHeight="11" orient="auto"><path d="M 1,1 l 9,9 M 10,1 l -9,9" class="arrowMarkerPath" style="stroke-width: 2; stroke-dasharray: 1, 0;"></path></marker><marker id="pmap_flowchart-v2-crossStart" class="marker cross flowchart-v2" viewBox="0 0 11 11" refX="-1" refY="5.2" markerUnits="userSpaceOnUse" markerWidth="11" markerHeight="11" orient="auto"><path d="M 1,1 l 9,9 M 10,1 l -9,9" class="arrowMarkerPath" style="stroke-width: 2; stroke-dasharray: 1, 0;"></path></marker><marker id="pmap_flowchart-v2-crossEnd-margin" class="marker cross flowchart-v2" viewBox="0 0 15 15" refX="17.7" refY="7.5" markerUnits="userSpaceOnUse" markerWidth="12" markerHeight="12" orient="auto"><path d="M 1,1 L 14,14 M 1,14 L 14,1" class="arrowMarkerPath" style="stroke-width: 2.5;"></path></marker><marker id="pmap_flowchart-v2-crossStart-margin" class="marker cross flowchart-v2" viewBox="0 0 15 15" refX="-3.5" refY="7.5" markerUnits="userSpaceOnUse" markerWidth="12" markerHeight="12" orient="auto"><path d="M 1,1 L 14,14 M 1,14 L 14,1" class="arrowMarkerPath" style="stroke-width: 2.5; stroke-dasharray: 1, 0;"></path></marker><g class="root"><g class="clusters"><g class="cluster " id="pmap-L12" data-look="classic"><rect style="" x="8" y="555.5" width="408.4" height="126.6"></rect><g class="cluster-label " transform="translate(121, 555.5)"><g><rect class="background" style="stroke: none"></rect><text y="-10.1" style=""><tspan class="text-outer-tspan row" x="0" y="-0.1em" dy="1.1em"><tspan font-style="normal" class="text-inner-tspan" font-weight="normal">L1</tspan><tspan font-style="normal" class="text-inner-tspan" font-weight="normal"> to</tspan><tspan font-style="normal" class="text-inner-tspan" font-weight="normal"> L2</tspan><tspan font-style="normal" class="text-inner-tspan" font-weight="normal"> ·</tspan><tspan font-style="normal" class="text-inner-tspan" font-weight="normal"> Engine</tspan><tspan font-style="normal" class="text-inner-tspan" font-weight="normal"> and</tspan><tspan font-style="normal" class="text-inner-tspan" font-weight="normal"> ML</tspan><tspan font-style="normal" class="text-inner-tspan" font-weight="normal"> build</tspan></tspan></text></g></g></g><g class="cluster " id="pmap-L3" data-look="classic"><rect style="" x="649.9" y="410" width="303.9" height="272.1"></rect><g class="cluster-label " transform="translate(705.9, 410)"><g><rect class="background" style="stroke: none"></rect><text y="-10.1" style=""><tspan class="text-outer-tspan row" x="0" y="-0.1em" dy="1.1em"><tspan font-style="normal" class="text-inner-tspan" font-weight="normal">L3</tspan><tspan font-style="normal" class="text-inner-tspan" font-weight="normal"> ·</tspan><tspan font-style="normal" class="text-inner-tspan" font-weight="normal"> Foundation</tspan><tspan font-style="normal" class="text-inner-tspan" font-weight="normal"> model</tspan><tspan font-style="normal" class="text-inner-tspan" font-weight="normal"> services</tspan></tspan></text></g></g></g><g class="cluster " id="pmap-L4" data-look="classic"><rect style="" x="973.8" y="410" width="492.6" height="272.1"></rect><g class="cluster-label " transform="translate(1161.1, 410)"><g><rect class="background" style="stroke: none"></rect><text y="-10.1" style=""><tspan class="text-outer-tspan row" x="0" y="-0.1em" dy="1.1em"><tspan font-style="normal" class="text-inner-tspan" font-weight="normal">L4</tspan><tspan font-style="normal" class="text-inner-tspan" font-weight="normal"> ·</tspan><tspan font-style="normal" class="text-inner-tspan" font-weight="normal"> Agent</tspan><tspan font-style="normal" class="text-inner-tspan" font-weight="normal"> platform</tspan></tspan></text></g></g></g><g class="cluster " id="pmap-L5" data-look="classic"><rect style="" x="813.3" y="69.5" width="221.5" height="178"></rect><g class="cluster-label " transform="translate(859.8, 69.5)"><g><rect class="background" style="stroke: none"></rect><text y="-10.1" style=""><tspan class="text-outer-tspan row" x="0" y="-0.1em" dy="1.1em"><tspan font-style="normal" class="text-inner-tspan" font-weight="normal">L5</tspan><tspan font-style="normal" class="text-inner-tspan" font-weight="normal"> ·</tspan><tspan font-style="normal" class="text-inner-tspan" font-weight="normal"> Experience</tspan><tspan font-style="normal" class="text-inner-tspan" font-weight="normal"> layer</tspan></tspan></text></g></g></g></g><g class="edgePaths"><path d="M924.523,36L924.44,38.75C924.357,41.5,924.2,47,924.1,52.583C924.023,58.2,924,63.8,924,68.833C924.023,73.8,924,78.2,924,80.333L924.023,82.5" id="pmap-L_eng_portal_0" class=" edge-thickness-normal edge-pattern-solid edge-thickness-normal edge-pattern-solid flowchart-link" style=";" data-edge="true" data-et="edge" data-id="L_eng_portal_0" data-points="W3sieCI6OTI0LjUyMzQzNzUsInkiOjM1Ljk5OTk5OTk5OTk5OTkxNX0seyJ4Ijo5MjQuMDIzNDM3NSwieSI6NTIuNX0seyJ4Ijo5MjQuMDIzNDM3NSwieSI6NjkuNX0seyJ4Ijo5MjQuMDIzNDM3NSwieSI6ODYuNX1d" data-look="classic" marker-end="url(#pmap_flowchart-v2-pointEnd)"></path><path d="M924.023,141.5L924.023,144.333C924.023,147.2,924,152.8,924,157.833C924.023,162.8,924,167.2,924,169.333L924.023,171.5" id="pmap-L_portal_scaffold_0" class=" edge-thickness-normal edge-pattern-solid edge-thickness-normal edge-pattern-solid flowchart-link" style=";" data-edge="true" data-et="edge" data-id="L_portal_scaffold_0" data-points="W3sieCI6OTI0LjAyMzQzNzUsInkiOjE0MS41fSx7IngiOjkyNC4wMjM0Mzc1LCJ5IjoxNTguNX0seyJ4Ijo5MjQuMDIzNDM3NSwieSI6MTc1LjV9XQ==" data-look="classic" marker-end="url(#pmap_flowchart-v2-pointEnd)"></path><path d="M924.023,230.5L924.023,233.333C924.023,236.2,924,241.8,924,247.5C924.023,253.2,924,258.8,924,263.833C924.023,268.8,924,273.2,924,275.333L924.023,277.5" id="pmap-L_scaffold_app_0" class=" edge-thickness-normal edge-pattern-solid edge-thickness-normal edge-pattern-solid flowchart-link" style=";" data-edge="true" data-et="edge" data-id="L_scaffold_app_0" data-points="W3sieCI6OTI0LjAyMzQzNzUsInkiOjIzMC41fSx7IngiOjkyNC4wMjM0Mzc1LCJ5IjoyNDcuNX0seyJ4Ijo5MjQuMDIzNDM3NSwieSI6MjY0LjV9LHsieCI6OTI0LjAyMzQzNzUsInkiOjI4MS41fV0=" data-look="classic" marker-end="url(#pmap_flowchart-v2-pointEnd)"></path><path d="M1022.638,356L1034.551,360.5C1046.464,365,1070.3,374,1082.2,383C1094.117,392,1094.1,401,1094.1,409.292C1094.117,417.6,1094.1,425.2,1094.1,428.958L1094.117,432.8" id="pmap-L_app_registry_0" class=" edge-thickness-normal edge-pattern-dotted edge-thickness-normal edge-pattern-solid flowchart-link" style=";" data-edge="true" data-et="edge" data-id="L_app_registry_0" data-points="W3sieCI6MTAyMi42MzgxMDE4OTY4ODcyLCJ5IjozNTZ9LHsieCI6MTA5NC4xMTcxODc1LCJ5IjozODN9LHsieCI6MTA5NC4xMTcxODc1LCJ5Ijo0MTB9LHsieCI6MTA5NC4xMTcxODc1LCJ5Ijo0MzYuNzV9XQ==" data-look="classic" marker-end="url(#pmap_flowchart-v2-pointEnd)"></path><path d="M843.93,356L834.254,360.5C824.578,365,805.2,374,795.6,383C785.875,392,785.9,401,785.9,407.667C785.875,414.3,785.9,418.7,785.9,420.833L785.875,423" id="pmap-L_app_gw_0" class=" edge-thickness-normal edge-pattern-solid edge-thickness-normal edge-pattern-solid flowchart-link" style=";" data-edge="true" data-et="edge" data-id="L_app_gw_0" data-points="W3sieCI6ODQzLjkyOTU5NjMwMzUwMiwieSI6MzU2fSx7IngiOjc4NS44NzUsInkiOjM4M30seyJ4Ijo3ODUuODc1LCJ5Ijo0MTB9LHsieCI6Nzg1Ljg3NSwieSI6NDI3fV0=" data-look="classic" marker-end="url(#pmap_flowchart-v2-pointEnd)"></path><path d="M1040.023,337.089L1088.422,344.741C1136.82,352.4,1233.6,367.7,1282,379.848C1330.414,392,1330.4,401,1330.4,407.667C1330.414,414.3,1330.4,418.7,1330.4,420.833L1330.414,423" id="pmap-L_app_runtime_0" class=" edge-thickness-normal edge-pattern-solid edge-thickness-normal edge-pattern-solid flowchart-link" style=";" data-edge="true" data-et="edge" data-id="L_app_runtime_0" data-points="W3sieCI6MTA0MC4wMjM0Mzc1LCJ5IjozMzcuMDg5NDk3ODY2MTIzM30seyJ4IjoxMzMwLjQxNDA2MjUsInkiOjM4M30seyJ4IjoxMzMwLjQxNDA2MjUsInkiOjQxMH0seyJ4IjoxMzMwLjQxNDA2MjUsInkiOjQyN31d" data-look="classic" marker-end="url(#pmap_flowchart-v2-pointEnd)"></path><path d="M808.023,328.031L693.513,337.192C579.003,346.4,350,364.7,235.5,378.338C120.961,392,121,401,121,414.542C120.961,428.1,121,446.2,121,465.917C120.961,485.7,121,507.1,121,522.292C120.961,537.5,121,546.5,121,556.297C120.961,566.1,121,576.7,121,581.984L120.961,587.3" id="pmap-L_app_k8s_0" class=" edge-thickness-normal edge-pattern-solid edge-thickness-normal edge-pattern-solid flowchart-link" style=";" data-edge="true" data-et="edge" data-id="L_app_k8s_0" data-points="W3sieCI6ODA4LjAyMzQzNzUsInkiOjMyOC4wMzA3MjIyMzUxOTM0fSx7IngiOjEyMC45NjA5Mzc1LCJ5IjozODN9LHsieCI6MTIwLjk2MDkzNzUsInkiOjQxMH0seyJ4IjoxMjAuOTYwOTM3NSwieSI6NDY0LjI1fSx7IngiOjEyMC45NjA5Mzc1LCJ5Ijo1MjguNX0seyJ4IjoxMjAuOTYwOTM3NSwieSI6NTU1LjV9LHsieCI6MTIwLjk2MDkzNzUsInkiOjU5MS4yODExMjc5Mjk2ODc1fV0=" data-look="classic" marker-end="url(#pmap_flowchart-v2-pointEnd)"></path><path d="M1330.414,501.5L1330.414,506C1330.414,510.5,1330.4,519.5,1330.4,528.5C1330.414,537.5,1330.4,546.5,1330.4,556.297C1330.414,566.1,1330.4,576.7,1330.4,581.984L1330.414,587.3" id="pmap-L_runtime_mcp_0" class=" edge-thickness-normal edge-pattern-solid edge-thickness-normal edge-pattern-solid flowchart-link" style=";" data-edge="true" data-et="edge" data-id="L_runtime_mcp_0" data-points="W3sieCI6MTMzMC40MTQwNjI1LCJ5Ijo1MDEuNX0seyJ4IjoxMzMwLjQxNDA2MjUsInkiOjUyOC41fSx7IngiOjEzMzAuNDE0MDYyNSwieSI6NTU1LjV9LHsieCI6MTMzMC40MTQwNjI1LCJ5Ijo1OTEuMjgxMTI3OTI5Njg3NX1d" data-look="classic" marker-end="url(#pmap_flowchart-v2-pointEnd)"></path><path d="M1330.414,646.281L1330.414,652.245C1330.414,658.2,1330.4,670.1,1330.4,678.932C1330.414,687.7,1330.4,693.4,1330.4,698.396C1330.414,703.4,1330.4,707.7,1330.4,709.896L1330.414,712.1" id="pmap-L_mcp_tools_0" class=" edge-thickness-normal edge-pattern-solid edge-thickness-normal edge-pattern-solid flowchart-link" style=";" data-edge="true" data-et="edge" data-id="L_mcp_tools_0" data-points="W3sieCI6MTMzMC40MTQwNjI1LCJ5Ijo2NDYuMjgxMTI3OTI5Njg3NX0seyJ4IjoxMzMwLjQxNDA2MjUsInkiOjY4Mi4wNjIyNTU4NTkzNzV9LHsieCI6MTMzMC40MTQwNjI1LCJ5Ijo2OTkuMDYyMjU1ODU5Mzc1fSx7IngiOjEzMzAuNDE0MDYyNSwieSI6NzE2LjA2MjI1NTg1OTM3NX1d" data-look="classic" marker-end="url(#pmap_flowchart-v2-pointEnd)"></path><path d="M767.354,501.5L765.117,506C762.879,510.5,758.4,519.5,756.2,528.5C753.93,537.5,753.9,546.5,733.9,556.742C713.86,567,673.8,578.5,653.8,584.211L633.72,590" id="pmap-L_gw_providers_0" class=" edge-thickness-normal edge-pattern-solid edge-thickness-normal edge-pattern-solid flowchart-link" style=";" data-edge="true" data-et="edge" data-id="L_gw_providers_0" data-points="W3sieCI6NzY3LjM1NDE3Njc5OTYxMDksInkiOjUwMS41fSx7IngiOjc1My45Mjk2ODc1LCJ5Ijo1MjguNX0seyJ4Ijo3NTMuOTI5Njg3NSwieSI6NTU1LjV9LHsieCI6NjI5Ljg3NSwieSI6NTkxLjA1NTc0OTI3OTc2NzV9XQ==" data-look="classic" marker-end="url(#pmap_flowchart-v2-pointEnd)"></path><path d="M746.451,501.5L741.688,506C736.926,510.5,727.4,519.5,722.6,528.5C717.875,537.5,717.9,546.5,665,559.316C612.036,572.1,506.2,588.8,453.3,597.078L400.358,605.4" id="pmap-L_gw_serve_0" class=" edge-thickness-normal edge-pattern-solid edge-thickness-normal edge-pattern-solid flowchart-link" style=";" data-edge="true" data-et="edge" data-id="L_gw_serve_0" data-points="W3sieCI6NzQ2LjQ1MDg3NTQ4NjM4MTMsInkiOjUwMS41fSx7IngiOjcxNy44NzUsInkiOjUyOC41fSx7IngiOjcxNy44NzUsInkiOjU1NS41fSx7IngiOjM5Ni40MDYyNSwieSI6NjA2LjAxNDkwNTg1Mzg5Nn1d" data-look="classic" marker-end="url(#pmap_flowchart-v2-pointEnd)"></path><path d="M807.412,501.5L810.014,506C812.616,510.5,817.8,519.5,820.4,528.5C823.023,537.5,823,546.5,823,556.297C823.023,566.1,823,576.7,823,581.984L823.023,587.3" id="pmap-L_gw_evals_0" class=" edge-thickness-normal edge-pattern-dotted edge-thickness-normal edge-pattern-solid flowchart-link" style=";" data-edge="true" data-et="edge" data-id="L_gw_evals_0" data-points="W3sieCI6ODA3LjQxMjQyMDk2MzAzNTEsInkiOjUwMS41fSx7IngiOjgyMy4wMjM0Mzc1LCJ5Ijo1MjguNX0seyJ4Ijo4MjMuMDIzNDM3NSwieSI6NTU1LjV9LHsieCI6ODIzLjAyMzQzNzUsInkiOjU5MS4yODExMjc5Mjk2ODc1fV0=" data-look="classic" marker-end="url(#pmap_flowchart-v2-pointEnd)"></path></g><g class="edgeLabels"><g class="edgeLabel"><g class="label" data-id="L_eng_portal_0" transform="translate(0, 0)"><text y="-10.1" text-anchor="middle"><tspan class="text-outer-tspan row" x="0" y="-0.1em" dy="1.1em" text-anchor="middle"></tspan></text></g></g><g><rect class="background" style="stroke: none"></rect></g><g class="edgeLabel"><g class="label" data-id="L_portal_scaffold_0" transform="translate(0, 0)"><text y="-10.1" text-anchor="middle"><tspan class="text-outer-tspan row" x="0" y="-0.1em" dy="1.1em" text-anchor="middle"></tspan></text></g></g><g><rect class="background" style="stroke: none"></rect></g><g class="edgeLabel"><g class="label" data-id="L_scaffold_app_0" transform="translate(0, 0)"><text y="-10.1" text-anchor="middle"><tspan class="text-outer-tspan row" x="0" y="-0.1em" dy="1.1em" text-anchor="middle"></tspan></text></g></g><g><rect class="background" style="stroke: none"></rect></g><g class="edgeLabel" transform="translate(1094.1, 383)"><g class="label" data-id="L_app_registry_0" transform="translate(0, -8)"><g><rect class="background" style="" x="-59.6" y="-2" width="119.2" height="20"></rect><text y="-10.1" text-anchor="middle" style=""><tspan class="text-outer-tspan row" x="0" y="-0.1em" dy="1.1em" text-anchor="middle"><tspan font-style="normal" class="text-inner-tspan" font-weight="normal">must</tspan><tspan font-style="normal" class="text-inner-tspan" font-weight="normal"> be</tspan><tspan font-style="normal" class="text-inner-tspan" font-weight="normal"> registered</tspan></tspan></text></g></g></g><g class="edgeLabel"><g class="label" data-id="L_app_gw_0" transform="translate(0, 0)"><text y="-10.1" text-anchor="middle"><tspan class="text-outer-tspan row" x="0" y="-0.1em" dy="1.1em" text-anchor="middle"></tspan></text></g></g><g><rect class="background" style="stroke: none"></rect></g><g class="edgeLabel"><g class="label" data-id="L_app_runtime_0" transform="translate(0, 0)"><text y="-10.1" text-anchor="middle"><tspan class="text-outer-tspan row" x="0" y="-0.1em" dy="1.1em" text-anchor="middle"></tspan></text></g></g><g><rect class="background" style="stroke: none"></rect></g><g class="edgeLabel"><g class="label" data-id="L_app_k8s_0" transform="translate(0, 0)"><text y="-10.1" text-anchor="middle"><tspan class="text-outer-tspan row" x="0" y="-0.1em" dy="1.1em" text-anchor="middle"></tspan></text></g></g><g><rect class="background" style="stroke: none"></rect></g><g class="edgeLabel"><g class="label" data-id="L_runtime_mcp_0" transform="translate(0, 0)"><text y="-10.1" text-anchor="middle"><tspan class="text-outer-tspan row" x="0" y="-0.1em" dy="1.1em" text-anchor="middle"></tspan></text></g></g><g><rect class="background" style="stroke: none"></rect></g><g class="edgeLabel"><g class="label" data-id="L_mcp_tools_0" transform="translate(0, 0)"><text y="-10.1" text-anchor="middle"><tspan class="text-outer-tspan row" x="0" y="-0.1em" dy="1.1em" text-anchor="middle"></tspan></text></g></g><g><rect class="background" style="stroke: none"></rect></g><g class="edgeLabel"><g class="label" data-id="L_gw_providers_0" transform="translate(0, 0)"><text y="-10.1" text-anchor="middle"><tspan class="text-outer-tspan row" x="0" y="-0.1em" dy="1.1em" text-anchor="middle"></tspan></text></g></g><g><rect class="background" style="stroke: none"></rect></g><g class="edgeLabel"><g class="label" data-id="L_gw_serve_0" transform="translate(0, 0)"><text y="-10.1" text-anchor="middle"><tspan class="text-outer-tspan row" x="0" y="-0.1em" dy="1.1em" text-anchor="middle"></tspan></text></g></g><g><rect class="background" style="stroke: none"></rect></g><g class="edgeLabel" transform="translate(823, 528.5)"><g class="label" data-id="L_gw_evals_0" transform="translate(0, -8)"><g><rect class="background" style="" x="-49.1" y="-2" width="98.2" height="20"></rect><text y="-10.1" text-anchor="middle" style=""><tspan class="text-outer-tspan row" x="0" y="-0.1em" dy="1.1em" text-anchor="middle"><tspan font-style="normal" class="text-inner-tspan" font-weight="normal">sampled</tspan><tspan font-style="normal" class="text-inner-tspan" font-weight="normal"> traces</tspan></tspan></text></g></g></g></g><g class="nodes"><g class="node default solid " id="pmap-flowchart-eng-0" data-look="classic" transform="translate(924, 21.8)"><g class="basic label-container outer-path"><path d="M-20.8671875 -13.8 C-5.069317125784966 -13.8, 10.7 -13.8, 20.9 -13.8 C20.8671875 -13.8, 20.9 -13.8, 20.9 -13.8 C21.078556132191427 -13.7, 21.3 -13.7, 21.7 -13.7 C21.950689683337192 -13.7, 22.2 -13.7, 22.6 -13.6 C22.934762797023854 -13.6, 23.2 -13.5, 23.5 -13.5 C23.780256734529996 -13.4, 24.1 -13.4, 24.4 -13.3 C24.638288020545097 -13.2, 24.9 -13.1, 25.2 -13 C25.376933872217954 -13, 25.6 -12.9, 26 -12.7 C26.220445022693866 -12.7, 26.4 -12.6, 26.8 -12.4 C27.144057388739924 -12.2, 27.5 -12.1, 27.6 -12 C27.770067681887003 -11.9, 27.9 -11.8, 28.4 -11.5 C28.56133906241766 -11.4, 28.8 -11.3, 29.1 -11 C29.320760570860408 -10.8, 29.6 -10.7, 29.8 -10.5 C29.949737407376492 -10.3, 30.1 -10.2, 30.4 -9.9 C30.612072874885737 -9.7, 30.8 -9.5, 31 -9.2 C31.17329060995101 -9.1, 31.3 -8.9, 31.6 -8.6 C31.820226805731313 -8.3, 32 -8, 32.1 -7.9 C32.32390770336397 -7.6, 32.5 -7.3, 32.6 -7.1 C32.726989724122376 -6.9, 32.8 -6.8, 33.1 -6.4 C33.20218103908396 -6.1, 33.3 -5.8, 33.4 -5.6 C33.53726122093523 -5.3, 33.6 -5.1, 33.8 -4.7 C33.879187850896514 -4.4, 34 -4.1, 34 -3.9 C34.12063224680241 -3.6, 34.2 -3.4, 34.3 -3.1 C34.322714243559496 -2.8, 34.4 -2.5, 34.4 -2.2 C34.47276531616986 -1.9, 34.5 -1.7, 34.6 -1.3 C34.5657704230294 -1.1, 34.6 -0.9, 34.6 -0.4 C34.610122972759456 -0.2, 34.6 0.1, 34.6 0.4 C34.59312434048226 0.7, 34.6 1, 34.6 1.3 C34.52601030866229 1.5, 34.5 1.7, 34.4 2.2 C34.38351442990132 2.5, 34.3 2.8, 34.3 3.1 C34.19604025584578 3.4, 34.1 3.6, 34 3.9 C33.963155390504156 4.2, 33.9 4.4, 33.8 4.7 C33.68719796127834 5, 33.6 5.2, 33.4 5.6 C33.305736017758086 5.8, 33.2 6.1, 33.1 6.4 C32.93074348077683 6.6, 32.8 6.8, 32.6 7.1 C32.434633363722476 7.4, 32.2 7.7, 32.1 7.9 C32.02050276660951 8, 31.9 8.2, 31.6 8.6 C31.404478400181358 8.8, 31.2 9.1, 31 9.2 C30.831839273252477 9.5, 30.6 9.7, 30.4 9.9 C30.227053732740625 10.1, 30 10.3, 29.8 10.5 C29.534837126302584 10.7, 29.3 10.9, 29.1 11 C28.84229157618115 11.2, 28.6 11.4, 28.4 11.5 C28.176150466543234 11.6, 28 11.8, 27.6 12 C27.366662594696074 12.1, 27.1 12.2, 26.8 12.4 C26.520637245487016 12.5, 26.2 12.7, 26 12.7 C25.797002299135503 12.8, 25.6 12.9, 25.2 13 C24.899361861827 13.1, 24.6 13.2, 24.4 13.3 C24.178973605565048 13.3, 24 13.4, 23.5 13.5 C23.29114979767605 13.5, 23.1 13.6, 22.6 13.6 C22.44955759456654 13.7, 22.3 13.7, 21.7 13.7 C21.469266223666708 13.7, 21.2 13.7, 20.9 13.8 C20.867187500000004 13.8, 20.9 13.8, 20.9 13.8 C11.046059524802496 13.8, 1.2 13.8, -20.9 13.8 C-21.081287966903613 13.7, -21.3 13.7, -21.7 13.7 C-22.05787947193913 13.7, -22.4 13.7, -22.6 13.6 C-22.86269088670645 13.6, -23.1 13.6, -23.5 13.5 C-23.670499973166187 13.5, -23.8 13.4, -24.4 13.3 C-24.63143878947428 13.2, -24.9 13.1, -25.2 13 C-25.504263182857752 12.9, -25.8 12.8, -26 12.7 C-26.244973136234496 12.6, -26.5 12.6, -26.8 12.4 C-27.04245016981985 12.3, -27.3 12.2, -27.6 12 C-27.818077703066475 11.9, -28 11.7, -28.4 11.5 C-28.551746597583964 11.4, -28.7 11.3, -29.1 11 C-29.300571874866392 10.9, -29.5 10.7, -29.8 10.5 C-29.95578626939003 10.3, -30.1 10.2, -30.4 9.9 C-30.677764632922468 9.6, -30.9 9.4, -31 9.2 C-31.174519812209677 9.1, -31.3 8.9, -31.6 8.6 C-31.76929001495472 8.4, -31.9 8.2, -32.1 7.9 C-32.26907357044654 7.7, -32.4 7.5, -32.6 7.1 C-32.7127747732839 7, -32.8 6.8, -33.1 6.4 C-33.13558983144788 6.2, -33.2 6, -33.4 5.6 C-33.560872319660916 5.3, -33.7 5, -33.8 4.7 C-33.88025743593085 4.4, -34 4.1, -34 3.9 C-34.10997363222617 3.7, -34.2 3.4, -34.3 3.1 C-34.31955262656906 2.8, -34.4 2.6, -34.4 2.2 C-34.47557044597409 1.9, -34.5 1.7, -34.6 1.3 C-34.565000110964824 1.1, -34.6 1, -34.6 0.4 C-34.610122972759456 0.2, -34.6 -0, -34.6 -0.4 C-34.59203738082146 -0.7, -34.6 -1, -34.6 -1.3 C-34.51769936550308 -1.6, -34.5 -1.9, -34.4 -2.2 C-34.387652689775074 -2.5, -34.3 -2.7, -34.3 -3.1 C-34.19078642915276 -3.4, -34.1 -3.7, -34 -3.9 C-33.95355574400847 -4.2, -33.9 -4.5, -33.8 -4.7 C-33.6425217849315 -5.1, -33.5 -5.4, -33.4 -5.6 C-33.33671388892242 -5.8, -33.2 -6, -33.1 -6.4 C-32.95877972368311 -6.5, -32.9 -6.7, -32.6 -7.1 C-32.49362815589272 -7.3, -32.4 -7.5, -32.1 -7.9 C-31.94915961508368 -8.1, -31.8 -8.4, -31.6 -8.6 C-31.441739548125806 -8.8, -31.3 -9, -31 -9.2 C-30.807986617327735 -9.5, -30.6 -9.7, -30.4 -9.9 C-30.300380165235364 -10, -30.2 -10.1, -29.8 -10.5 C-29.60440965083346 -10.6, -29.4 -10.8, -29.1 -11 C-28.826641274374058 -11.2, -28.6 -11.4, -28.4 -11.5 C-28.08824120427181 -11.7, -27.8 -11.9, -27.6 -12 C-27.367950723516554 -12.1, -27.1 -12.2, -26.8 -12.4 C-26.642040677300695 -12.5, -26.5 -12.6, -26 -12.7 C-25.731739499035513 -12.9, -25.4 -13, -25.2 -13 C-24.925527865086586 -13.1, -24.7 -13.2, -24.4 -13.3 C-24.11526848481925 -13.4, -23.9 -13.4, -23.5 -13.5 C-23.185089282634532 -13.5, -22.9 -13.6, -22.6 -13.6 C-22.397598350161925 -13.7, -22.2 -13.7, -21.7 -13.7 C-21.51789135013502 -13.7, -21.3 -13.7, -20.9 -13.8 C-20.867187500000004 -13.8, -20.9 -13.8, -20.9 -13.8" stroke="none" stroke-width="0" fill="#ffffff" style="fill:#ffffff !important;stroke:#1c1c1c !important;stroke-width:1.2px !important"></path><path d="M-20.8671875 -13.8 C-8.289611155176093 -13.8, 4.3 -13.8, 20.9 -13.8 M-20.8671875 -13.8 C-9.261854050225969 -13.8, 2.3 -13.8, 20.9 -13.8 M20.8671875 -13.8 C20.8671875 -13.8, 20.9 -13.8, 20.9 -13.8 M20.8671875 -13.8 C20.8671875 -13.8, 20.9 -13.8, 20.9 -13.8 M20.8671875 -13.8 C21.11625561184198 -13.7, 21.4 -13.7, 21.7 -13.7 M20.8671875 -13.8 C21.154176369994786 -13.7, 21.4 -13.7, 21.7 -13.7 M21.7481530247348 -13.7 C22.02094793943669 -13.7, 22.3 -13.7, 22.6 -13.6 M21.7481530247348 -13.7 C22.09456200627891 -13.7, 22.4 -13.7, 22.6 -13.6 M22.625498473161954 -13.6 C22.925612795847556 -13.6, 23.2 -13.5, 23.5 -13.5 M22.625498473161954 -13.6 C22.9709820156028 -13.6, 23.3 -13.5, 23.5 -13.5 M23.495618644643866 -13.5 C23.771121494032645 -13.4, 24 -13.4, 24.4 -13.3 M23.495618644643866 -13.5 C23.69369637315779 -13.5, 23.9 -13.4, 24.4 -13.3 M24.354938028755726 -13.3 C24.61147934669031 -13.2, 24.9 -13.1, 25.2 -13 M24.354938028755726 -13.3 C24.669699942518548 -13.2, 25 -13.1, 25.2 -13 M25.199925497824786 -13 C25.45004493151211 -13, 25.7 -12.9, 26 -12.7 M25.199925497824786 -13 C25.46497785957826 -13, 25.7 -12.9, 26 -12.7 M26.027108817091396 -12.7 C26.218101787337083 -12.7, 26.4 -12.6, 26.8 -12.4 M26.027108817091396 -12.7 C26.215975608280523 -12.7, 26.4 -12.6, 26.8 -12.4 M26.833088912866423 -12.4 C27.131578390021687 -12.2, 27.4 -12.1, 27.6 -12 M26.833088912866423 -12.4 C27.02757881598296 -12.3, 27.2 -12.2, 27.6 -12 M27.614553840054143 -12 C27.81383030506824 -11.9, 28 -11.7, 28.4 -11.5 M27.614553840054143 -12 C27.788694481553787 -11.9, 28 -11.8, 28.4 -11.5 M28.368292391645042 -11.5 C28.599853575555844 -11.4, 28.8 -11.2, 29.1 -11 M28.368292391645042 -11.5 C28.616026330216688 -11.4, 28.9 -11.2, 29.1 -11 M29.091207294254218 -11 C29.303232439647168 -10.9, 29.5 -10.7, 29.8 -10.5 M29.091207294254218 -11 C29.256246902574897 -10.9, 29.4 -10.8, 29.8 -10.5 M29.780327935482088 -10.5 C30.01800418186945 -10.3, 30.3 -10, 30.4 -9.9 M29.780327935482088 -10.5 C30.025141559144014 -10.2, 30.3 -10, 30.4 -9.9 M30.43282257079794 -9.9 C30.560193392569555 -9.7, 30.7 -9.6, 31 -9.2 M30.43282257079794 -9.9 C30.564648102876937 -9.7, 30.7 -9.6, 31 -9.2 M31.046009959785586 -9.2 C31.227598817333163 -9, 31.4 -8.8, 31.6 -8.6 M31.046009959785586 -9.2 C31.204864904233002 -9.1, 31.4 -8.9, 31.6 -8.6 M31.61737038393541 -8.6 C31.747309053106502 -8.4, 31.9 -8.2, 32.1 -7.9 M31.61737038393541 -8.6 C31.75229366733547 -8.4, 31.9 -8.2, 32.1 -7.9 M32.14455600070814 -7.9 C32.285841696167644 -7.6, 32.4 -7.4, 32.6 -7.1 M32.14455600070814 -7.9 C32.287552964490516 -7.6, 32.4 -7.4, 32.6 -7.1 M32.62540049132351 -7.1 C32.76353173389204 -6.9, 32.9 -6.6, 33.1 -6.4 M32.62540049132351 -7.1 C32.73906713346987 -6.9, 32.9 -6.7, 33.1 -6.4 M33.05792796262875 -6.4 C33.14474961919045 -6.2, 33.2 -6, 33.4 -5.6 M33.05792796262875 -6.4 C33.190832753317615 -6.1, 33.3 -5.8, 33.4 -5.6 M33.44036106646742 -5.6 C33.5209200637331 -5.4, 33.6 -5.2, 33.8 -4.7 M33.44036106646742 -5.6 C33.509240540435805 -5.4, 33.6 -5.2, 33.8 -4.7 M33.7711283031842 -4.7 C33.83592850461865 -4.6, 33.9 -4.4, 34 -3.9 M33.7711283031842 -4.7 C33.85978117639063 -4.5, 33.9 -4.2, 34 -3.9 M34.048870479254084 -3.9 C34.125998859793505 -3.6, 34.2 -3.3, 34.3 -3.1 M34.048870479254084 -3.9 C34.12081352439701 -3.6, 34.2 -3.4, 34.3 -3.1 M34.27244629250008 -3.1 C34.33168260271755 -2.8, 34.4 -2.5, 34.4 -2.2 M34.27244629250008 -3.1 C34.32192433476029 -2.8, 34.4 -2.6, 34.4 -2.2 M34.440937021948685 -2.2 C34.47785933802212 -1.9, 34.5 -1.6, 34.6 -1.3 M34.440937021948685 -2.2 C34.4815902628655 -1.9, 34.5 -1.6, 34.6 -1.3 M34.55365030305148 -1.3 C34.56767291272524 -1.1, 34.6 -0.9, 34.6 -0.4 M34.55365030305148 -1.3 C34.574159553641095 -1, 34.6 -0.7, 34.6 -0.4 M34.610122972759456 -0.4 C34.610122972759456 -0.1, 34.6 0.2, 34.6 0.4 M34.610122972759456 -0.4 C34.610122972759456 -0.1, 34.6 0.2, 34.6 0.4 M34.610122972759456 0.4 C34.594029303491084 0.7, 34.6 0.9, 34.6 1.3 M34.610122972759456 0.4 C34.58957168040557 0.8, 34.6 1.1, 34.6 1.3 M34.55365030305148 1.3 C34.530585816276435 1.5, 34.5 1.7, 34.4 2.2 M34.55365030305148 1.3 C34.529456564185345 1.5, 34.5 1.7, 34.4 2.2 M34.44093702194869 2.2 C34.383867225214 2.5, 34.3 2.8, 34.3 3.1 M34.44093702194869 2.2 C34.39132977604196 2.4, 34.3 2.7, 34.3 3.1 M34.27244629250008 3.1 C34.209715831736716 3.3, 34.1 3.5, 34 3.9 M34.27244629250008 3.1 C34.21362438167337 3.3, 34.2 3.5, 34 3.9 M34.048870479254084 3.9 C33.98696095686239 4.1, 33.9 4.3, 33.8 4.7 M34.048870479254084 3.9 C33.94507907530114 4.2, 33.8 4.5, 33.8 4.7 M33.771128303184206 4.7 C33.68007675415605 5, 33.6 5.2, 33.4 5.6 M33.771128303184206 4.7 C33.665853690961804 5, 33.6 5.3, 33.4 5.6 M33.44036106646742 5.6 C33.29958728898934 5.9, 33.2 6.2, 33.1 6.4 M33.44036106646742 5.6 C33.359998679880896 5.7, 33.3 5.9, 33.1 6.4 M33.05792796262875 6.4 C32.93756752738062 6.6, 32.8 6.8, 32.6 7.1 M33.05792796262875 6.4 C32.91237475382159 6.6, 32.8 6.9, 32.6 7.1 M32.62540049132351 7.1 C32.45087224431369 7.4, 32.3 7.7, 32.1 7.9 M32.62540049132351 7.1 C32.5066869771438 7.3, 32.4 7.5, 32.1 7.9 M32.14455600070815 7.9 C31.96019963543652 8.1, 31.8 8.4, 31.6 8.6 M32.14455600070815 7.9 C31.95401005922995 8.1, 31.8 8.4, 31.6 8.6 M31.61737038393541 8.6 C31.472645541930554 8.7, 31.3 8.9, 31 9.2 M31.61737038393541 8.6 C31.403980795958088 8.8, 31.2 9.1, 31 9.2 M31.046009959785593 9.2 C30.800978960939617 9.5, 30.6 9.8, 30.4 9.9 M31.046009959785593 9.2 C30.801199318107372 9.5, 30.6 9.7, 30.4 9.9 M30.43282257079794 9.9 C30.293245612437865 10, 30.2 10.1, 29.8 10.5 M30.43282257079794 9.9 C30.293498266537917 10, 30.2 10.1, 29.8 10.5 M29.7803279354821 10.5 C29.561489798407717 10.6, 29.3 10.8, 29.1 11 M29.7803279354821 10.5 C29.5172507817692 10.7, 29.3 10.9, 29.1 11 M29.091207294254225 11 C28.928277072110486 11.1, 28.8 11.2, 28.4 11.5 M29.091207294254225 11 C28.854767837923152 11.2, 28.6 11.3, 28.4 11.5 M28.36829239164505 11.5 C28.208331320247325 11.6, 28 11.7, 27.6 12 M28.36829239164505 11.5 C28.117012551358897 11.7, 27.9 11.8, 27.6 12 M27.614553840054143 12 C27.371078114926767 12.1, 27.1 12.2, 26.8 12.4 M27.614553840054143 12 C27.424333131740536 12.1, 27.2 12.2, 26.8 12.4 M26.833088912866426 12.4 C26.66460873144746 12.5, 26.5 12.5, 26 12.7 M26.833088912866426 12.4 C26.656659114500883 12.5, 26.5 12.5, 26 12.7 M26.0271088170914 12.7 C25.78654730134913 12.8, 25.5 12.9, 25.2 13 M26.0271088170914 12.7 C25.79242703806413 12.8, 25.6 12.9, 25.2 13 M25.199925497824793 13 C24.9714799018046 13.1, 24.7 13.2, 24.4 13.3 M25.199925497824793 13 C24.915858330348016 13.1, 24.6 13.2, 24.4 13.3 M24.35493802875574 13.3 C24.017374252762497 13.4, 23.7 13.5, 23.5 13.5 M24.35493802875574 13.3 C24.028199740073074 13.4, 23.7 13.4, 23.5 13.5 M23.495618644643873 13.5 C23.217617435740536 13.5, 22.9 13.6, 22.6 13.6 M23.495618644643873 13.5 C23.231475251098175 13.5, 23 13.6, 22.6 13.6 M22.625498473161965 13.6 C22.305918207975726 13.7, 22 13.7, 21.7 13.7 M22.625498473161965 13.6 C22.409242299642465 13.7, 22.2 13.7, 21.7 13.7 M21.7481530247348 13.7 C21.486469141955453 13.7, 21.2 13.7, 20.9 13.8 M21.7481530247348 13.7 C21.56110511794399 13.7, 21.4 13.7, 20.9 13.8 M20.867187500000004 13.8 C20.867187500000004 13.8, 20.9 13.8, 20.9 13.8 M20.867187500000004 13.8 C20.867187500000004 13.8, 20.9 13.8, 20.9 13.8 M20.8671875 13.8 C7.3233453704262335 13.8, -6.2 13.8, -20.9 13.8 M20.8671875 13.8 C6.656984975189726 13.8, -7.6 13.8, -20.9 13.8 M-20.867187499999996 13.8 C-21.08737465752854 13.7, -21.3 13.7, -21.7 13.7 M-20.867187499999996 13.8 C-21.212747567810766 13.7, -21.6 13.7, -21.7 13.7 M-21.748153024734798 13.7 C-21.957243897385283 13.7, -22.2 13.7, -22.6 13.6 M-21.748153024734798 13.7 C-21.976854886884077 13.7, -22.2 13.7, -22.6 13.6 M-22.62549847316196 13.6 C-22.90218684158497 13.6, -23.2 13.5, -23.5 13.5 M-22.62549847316196 13.6 C-22.830057523674682 13.6, -23 13.6, -23.5 13.5 M-23.49561864464387 13.5 C-23.669820711102915 13.5, -23.8 13.4, -24.4 13.3 M-23.49561864464387 13.5 C-23.820960065233457 13.4, -24.1 13.3, -24.4 13.3 M-24.354938028755722 13.3 C-24.612006150296466 13.2, -24.9 13.1, -25.2 13 M-24.354938028755722 13.3 C-24.61297664386978 13.2, -24.9 13.1, -25.2 13 M-25.19992549782478 13 C-25.471583966298095 12.9, -25.7 12.8, -26 12.7 M-25.19992549782478 13 C-25.500648062960046 12.9, -25.8 12.8, -26 12.7 M-26.027108817091396 12.7 C-26.239709093161824 12.7, -26.5 12.6, -26.8 12.4 M-26.027108817091396 12.7 C-26.23023176146203 12.7, -26.4 12.6, -26.8 12.4 M-26.833088912866423 12.4 C-26.991678515417604 12.3, -27.2 12.2, -27.6 12 M-26.833088912866423 12.4 C-27.129561005653475 12.2, -27.4 12.1, -27.6 12 M-27.61455384005414 12 C-27.816545636976386 11.9, -28 11.7, -28.4 11.5 M-27.61455384005414 12 C-27.845414968258545 11.8, -28.1 11.7, -28.4 11.5 M-28.368292391645035 11.5 C-28.52980620535475 11.4, -28.7 11.3, -29.1 11 M-28.368292391645035 11.5 C-28.60132845846705 11.4, -28.8 11.2, -29.1 11 M-29.091207294254218 11 C-29.347187129092074 10.8, -29.6 10.6, -29.8 10.5 M-29.091207294254218 11 C-29.343262905460332 10.8, -29.6 10.6, -29.8 10.5 M-29.780327935482088 10.5 C-29.99774677531962 10.3, -30.2 10.1, -30.4 9.9 M-29.780327935482088 10.5 C-29.992752624912654 10.3, -30.2 10.1, -30.4 9.9 M-30.43282257079793 9.9 C-30.629750336739843 9.7, -30.8 9.5, -31 9.2 M-30.43282257079793 9.9 C-30.64415187257775 9.7, -30.9 9.4, -31 9.2 M-31.04600995978559 9.2 C-31.180782914936195 9.1, -31.3 8.9, -31.6 8.6 M-31.04600995978559 9.2 C-31.200436280640325 9.1, -31.4 8.9, -31.6 8.6 M-31.61737038393541 8.6 C-31.759049268306217 8.4, -31.9 8.2, -32.1 7.9 M-31.61737038393541 8.6 C-31.77306664217522 8.4, -31.9 8.2, -32.1 7.9 M-32.14455600070814 7.9 C-32.2820612295695 7.7, -32.4 7.4, -32.6 7.1 M-32.14455600070814 7.9 C-32.30323532757342 7.6, -32.5 7.4, -32.6 7.1 M-32.625400491323504 7.1 C-32.77619090186768 6.9, -32.9 6.6, -33.1 6.4 M-32.625400491323504 7.1 C-32.74376123839407 6.9, -32.9 6.7, -33.1 6.4 M-33.05792796262875 6.4 C-33.15548919360941 6.2, -33.3 6, -33.4 5.6 M-33.05792796262875 6.4 C-33.16144599853722 6.1, -33.3 5.9, -33.4 5.6 M-33.44036106646742 5.6 C-33.55357154640446 5.3, -33.7 5, -33.8 4.7 M-33.44036106646742 5.6 C-33.5351906428183 5.3, -33.6 5.1, -33.8 4.7 M-33.7711283031842 4.7 C-33.8495671378785 4.5, -33.9 4.3, -34 3.9 M-33.7711283031842 4.7 C-33.87772800804516 4.4, -34 4.1, -34 3.9 M-34.048870479254084 3.9 C-34.096545926224096 3.7, -34.1 3.5, -34.3 3.1 M-34.048870479254084 3.9 C-34.127013496686004 3.6, -34.2 3.3, -34.3 3.1 M-34.27244629250007 3.1 C-34.3200268513243 2.8, -34.4 2.6, -34.4 2.2 M-34.27244629250007 3.1 C-34.32162729444796 2.8, -34.4 2.6, -34.4 2.2 M-34.440937021948685 2.2 C-34.47595843256729 1.9, -34.5 1.7, -34.6 1.3 M-34.440937021948685 2.2 C-34.48418234235337 1.9, -34.5 1.5, -34.6 1.3 M-34.55365030305148 1.3 C-34.565048477271255 1.1, -34.6 1, -34.6 0.4 M-34.55365030305148 1.3 C-34.573055195929655 1, -34.6 0.7, -34.6 0.4 M-34.610122972759456 0.4 C-34.610122972759456 0.2, -34.6 -0, -34.6 -0.4 M-34.610122972759456 0.4 C-34.610122972759456 0.2, -34.6 -0.1, -34.6 -0.4 M-34.610122972759456 -0.4 C-34.59811083137895 -0.6, -34.6 -0.8, -34.6 -1.3 M-34.610122972759456 -0.4 C-34.59253118304471 -0.7, -34.6 -1, -34.6 -1.3 M-34.55365030305148 -1.3 C-34.525901743457254 -1.5, -34.5 -1.8, -34.4 -2.2 M-34.55365030305148 -1.3 C-34.51865943831295 -1.6, -34.5 -1.9, -34.4 -2.2 M-34.44093702194869 -2.2 C-34.39487031794362 -2.4, -34.3 -2.7, -34.3 -3.1 M-34.44093702194869 -2.2 C-34.37932229322009 -2.5, -34.3 -2.8, -34.3 -3.1 M-34.27244629250008 -3.1 C-34.201515644453636 -3.3, -34.1 -3.6, -34 -3.9 M-34.27244629250008 -3.1 C-34.21426400026808 -3.3, -34.2 -3.5, -34 -3.9 M-34.048870479254084 -3.9 C-33.97571282127342 -4.1, -33.9 -4.4, -33.8 -4.7 M-34.048870479254084 -3.9 C-33.97530780452854 -4.1, -33.9 -4.4, -33.8 -4.7 M-33.77112830318421 -4.7 C-33.648141117876094 -5.1, -33.5 -5.4, -33.4 -5.6 M-33.77112830318421 -4.7 C-33.64094397004714 -5.1, -33.5 -5.4, -33.4 -5.6 M-33.44036106646742 -5.6 C-33.350249402215304 -5.8, -33.3 -5.9, -33.1 -6.4 M-33.44036106646742 -5.6 C-33.32339289374396 -5.8, -33.2 -6.1, -33.1 -6.4 M-33.05792796262875 -6.4 C-32.94295789312119 -6.6, -32.8 -6.8, -32.6 -7.1 M-33.05792796262875 -6.4 C-32.920313007087486 -6.6, -32.8 -6.8, -32.6 -7.1 M-32.62540049132351 -7.1 C-32.43683792202469 -7.4, -32.2 -7.7, -32.1 -7.9 M-32.62540049132351 -7.1 C-32.480223951153334 -7.4, -32.3 -7.6, -32.1 -7.9 M-32.14455600070814 -7.9 C-32.038848504178 -8, -31.9 -8.1, -31.6 -8.6 M-32.14455600070814 -7.9 C-32.025441308380636 -8, -31.9 -8.2, -31.6 -8.6 M-31.617370383935413 -8.6 C-31.502454210608512 -8.7, -31.4 -8.8, -31 -9.2 M-31.617370383935413 -8.6 C-31.410267902611896 -8.8, -31.2 -9.1, -31 -9.2 M-31.046009959785593 -9.2 C-30.811320172448376 -9.5, -30.6 -9.7, -30.4 -9.9 M-31.046009959785593 -9.2 C-30.82299834737932 -9.5, -30.6 -9.7, -30.4 -9.9 M-30.432822570797946 -9.9 C-30.241272589979904 -10.1, -30 -10.2, -29.8 -10.5 M-30.432822570797946 -9.9 C-30.22904939126453 -10.1, -30 -10.2, -29.8 -10.5 M-29.780327935482102 -10.5 C-29.595784064152515 -10.6, -29.4 -10.8, -29.1 -11 M-29.780327935482102 -10.5 C-29.622634133033287 -10.6, -29.5 -10.7, -29.1 -11 M-29.091207294254225 -11 C-28.89597871173895 -11.2, -28.7 -11.3, -28.4 -11.5 M-29.091207294254225 -11 C-28.872071078252063 -11.2, -28.7 -11.3, -28.4 -11.5 M-28.368292391645053 -11.5 C-28.154400262587107 -11.7, -27.9 -11.8, -27.6 -12 M-28.368292391645053 -11.5 C-28.115659197243936 -11.7, -27.9 -11.8, -27.6 -12 M-27.614553840054146 -12 C-27.356499331040986 -12.1, -27.1 -12.2, -26.8 -12.4 M-27.614553840054146 -12 C-27.316351365632233 -12.1, -27 -12.3, -26.8 -12.4 M-26.83308891286643 -12.4 C-26.577146575023992 -12.5, -26.3 -12.6, -26 -12.7 M-26.83308891286643 -12.4 C-26.644668632640645 -12.5, -26.5 -12.6, -26 -12.7 M-26.027108817091403 -12.7 C-25.835622792727936 -12.8, -25.6 -12.9, -25.2 -13 M-26.027108817091403 -12.7 C-25.86149725753227 -12.8, -25.7 -12.9, -25.2 -13 M-25.199925497824793 -13 C-25.026515451993117 -13.1, -24.9 -13.2, -24.4 -13.3 M-25.199925497824793 -13 C-24.978328015610487 -13.1, -24.8 -13.2, -24.4 -13.3 M-24.35493802875574 -13.3 C-24.085605769757148 -13.4, -23.8 -13.4, -23.5 -13.5 M-24.35493802875574 -13.3 C-24.150352818097684 -13.3, -23.9 -13.4, -23.5 -13.5 M-23.495618644643876 -13.5 C-23.300852426916077 -13.5, -23.1 -13.6, -22.6 -13.6 M-23.495618644643876 -13.5 C-23.16893670489802 -13.5, -22.8 -13.6, -22.6 -13.6 M-22.62549847316197 -13.6 C-22.37839908357371 -13.7, -22.1 -13.7, -21.7 -13.7 M-22.62549847316197 -13.6 C-22.36317821699047 -13.7, -22.1 -13.7, -21.7 -13.7 M-21.748153024734805 -13.7 C-21.463789389430804 -13.7, -21.2 -13.7, -20.9 -13.8 M-21.748153024734805 -13.7 C-21.510400787170624 -13.7, -21.3 -13.7, -20.9 -13.8 M-20.867187500000004 -13.8 C-20.867187500000004 -13.8, -20.9 -13.8, -20.9 -13.8 M-20.867187500000004 -13.8 C-20.867187500000004 -13.8, -20.9 -13.8, -20.9 -13.8" stroke="#1c1c1c" stroke-width="1.2" fill="none" stroke-dasharray="0 0" style="fill:#ffffff !important;stroke:#1c1c1c !important;stroke-width:1.2px !important"></path></g><g class="label" style="color:#1c1c1c !important" transform="translate(-27.2, -9.8)"><rect></rect><foreignObject width="54.4" height="19.5"><div style="color: rgb(28, 28, 28) !important; display: table-cell; white-space: nowrap; line-height: 1.5; max-width: 200px; text-align: center;" xmlns="http://www.w3.org/1999/xhtml"><span style="color:#1c1c1c !important" class="nodeLabel "><p>Engineer</p></span></div></foreignObject></g></g><g class="node default gap " id="pmap-flowchart-portal-1" data-look="classic" transform="translate(924, 114)"><rect class="basic label-container" style="fill:#ffffff !important;stroke:#8a8a8a !important;stroke-width:1.2px !important;stroke-dasharray:5 4 !important" x="-78.6" y="-27.5" width="157.1" height="55"></rect><g class="label" style="color:#4a4a4a !important" transform="translate(-62.6, -19.5)"><rect></rect><foreignObject width="125.1" height="39"><div style="color: rgb(74, 74, 74) !important; display: table-cell; white-space: nowrap; line-height: 1.5; max-width: 200px; text-align: center;" xmlns="http://www.w3.org/1999/xhtml"><span style="color:#4a4a4a !important" class="nodeLabel "><p>Developer portal<br>catalog · scorecards</p></span></div></foreignObject></g></g><g class="node default gap " id="pmap-flowchart-scaffold-2" data-look="classic" transform="translate(924, 203)"><rect class="basic label-container" style="fill:#ffffff !important;stroke:#8a8a8a !important;stroke-width:1.2px !important;stroke-dasharray:5 4 !important" x="-90.7" y="-27.5" width="181.5" height="55"></rect><g class="label" style="color:#4a4a4a !important" transform="translate(-74.7, -19.5)"><rect></rect><foreignObject width="149.5" height="39"><div style="color: rgb(74, 74, 74) !important; display: table-cell; white-space: nowrap; line-height: 1.5; max-width: 200px; text-align: center;" xmlns="http://www.w3.org/1999/xhtml"><span style="color:#4a4a4a !important" class="nodeLabel "><p>Golden-path scaffolder<br>new service · new agent</p></span></div></foreignObject></g></g><g class="node default gap " id="pmap-flowchart-app-3" data-look="classic" transform="translate(924, 318.8)"><rect class="basic label-container" style="fill:#ffffff !important;stroke:#8a8a8a !important;stroke-width:1.2px !important;stroke-dasharray:5 4 !important" x="-116" y="-37.2" width="232" height="74.5"></rect><g class="label" style="color:#4a4a4a !important" transform="translate(-100, -29.2)"><rect></rect><foreignObject width="200" height="58.5"><div style="color: rgb(74, 74, 74) !important; display: table; white-space: break-spaces; line-height: 1.5; max-width: 200px; text-align: center; width: 200px;" xmlns="http://www.w3.org/1999/xhtml"><span style="color:#4a4a4a !important" class="nodeLabel "><p>AI service or agent<br>gateway client · telemetry · identity pre-wired</p></span></div></foreignObject></g></g><g class="node default gap " id="pmap-flowchart-registry-4" data-look="classic" transform="translate(1094.1, 464.2)"><rect class="basic label-container" style="fill:#ffffff !important;stroke:#8a8a8a !important;stroke-width:1.2px !important;stroke-dasharray:5 4 !important" x="-100.3" y="-27.5" width="200.6" height="55"></rect><g class="label" style="color:#4a4a4a !important" transform="translate(-84.3, -19.5)"><rect></rect><foreignObject width="168.6" height="39"><div style="color: rgb(74, 74, 74) !important; display: table-cell; white-space: nowrap; line-height: 1.5; max-width: 200px; text-align: center;" xmlns="http://www.w3.org/1999/xhtml"><span style="color:#4a4a4a !important" class="nodeLabel "><p>Agent registry<br>owner · cost center · grants</p></span></div></foreignObject></g></g><g class="node default gap " id="pmap-flowchart-runtime-5" data-look="classic" transform="translate(1330.4, 464.2)"><rect class="basic label-container" style="fill:#ffffff !important;stroke:#8a8a8a !important;stroke-width:1.2px !important;stroke-dasharray:5 4 !important" x="-116" y="-37.2" width="232" height="74.5"></rect><g class="label" style="color:#4a4a4a !important" transform="translate(-100, -29.2)"><rect></rect><foreignObject width="200" height="58.5"><div style="color: rgb(74, 74, 74) !important; display: table; white-space: break-spaces; line-height: 1.5; max-width: 200px; text-align: center; width: 200px;" xmlns="http://www.w3.org/1999/xhtml"><span style="color:#4a4a4a !important" class="nodeLabel "><p>Agent runtime<br>microVM sessions · memory · sandbox</p></span></div></foreignObject></g></g><g class="node default gap " id="pmap-flowchart-mcp-6" data-look="classic" transform="translate(1330.4, 618.8)"><rect class="basic label-container" style="fill:#ffffff !important;stroke:#8a8a8a !important;stroke-width:1.2px !important;stroke-dasharray:5 4 !important" x="-96.8" y="-27.5" width="193.7" height="55"></rect><g class="label" style="color:#4a4a4a !important" transform="translate(-80.8, -19.5)"><rect></rect><foreignObject width="161.7" height="39"><div style="color: rgb(74, 74, 74) !important; display: table-cell; white-space: nowrap; line-height: 1.5; max-width: 200px; text-align: center;" xmlns="http://www.w3.org/1999/xhtml"><span style="color:#4a4a4a !important" class="nodeLabel "><p>MCP catalog + gateway<br>allowlists · per-user OAuth</p></span></div></foreignObject></g></g><g class="node default key " id="pmap-flowchart-gw-7" data-look="classic" transform="translate(785.9, 464.2)"><rect class="basic label-container" style="fill:#ffffff !important;stroke:#a02c1e !important;stroke-width:2px !important" x="-116" y="-37.2" width="232" height="74.5"></rect><g class="label" style="color:#1c1c1c !important" transform="translate(-100, -29.2)"><rect></rect><foreignObject width="200" height="58.5"><div style="color: rgb(28, 28, 28) !important; display: table; white-space: break-spaces; line-height: 1.5; max-width: 200px; text-align: center; width: 200px;" xmlns="http://www.w3.org/1999/xhtml"><span style="color:#1c1c1c !important" class="nodeLabel "><p>Model gateway<br>auth · guardrails + DLP · aliases · cache · cost</p></span></div></foreignObject></g></g><g class="node default gap " id="pmap-flowchart-evals-8" data-look="classic" transform="translate(823, 618.8)"><rect class="basic label-container" style="fill:#ffffff !important;stroke:#8a8a8a !important;stroke-width:1.2px !important;stroke-dasharray:5 4 !important" x="-110.8" y="-27.5" width="221.6" height="55"></rect><g class="label" style="color:#4a4a4a !important" transform="translate(-94.8, -19.5)"><rect></rect><foreignObject width="189.6" height="39"><div style="color: rgb(74, 74, 74) !important; display: table-cell; white-space: nowrap; line-height: 1.5; max-width: 200px; text-align: center;" xmlns="http://www.w3.org/1999/xhtml"><span style="color:#4a4a4a !important" class="nodeLabel "><p>Eval harness<br>core + regression sets · judges</p></span></div></foreignObject></g></g><g class="node default solid " id="pmap-flowchart-k8s-9" data-look="classic" transform="translate(121, 618.8)"><rect class="basic label-container" style="fill:#ffffff !important;stroke:#1c1c1c !important;stroke-width:1.2px !important" x="-93" y="-27.5" width="185.9" height="55"></rect><g class="label" style="color:#1c1c1c !important" transform="translate(-77, -19.5)"><rect></rect><foreignObject width="153.9" height="39"><div style="color: rgb(28, 28, 28) !important; display: table-cell; white-space: nowrap; line-height: 1.5; max-width: 200px; text-align: center;" xmlns="http://www.w3.org/1999/xhtml"><span style="color:#1c1c1c !important" class="nodeLabel "><p>Kubernetes deploys<br>base images · Artifactory</p></span></div></foreignObject></g></g><g class="node default solid " id="pmap-flowchart-serve-10" data-look="classic" transform="translate(315.2, 618.8)"><rect class="basic label-container" style="fill:#ffffff !important;stroke:#1c1c1c !important;stroke-width:1.2px !important" x="-81.2" y="-27.5" width="162.5" height="55"></rect><g class="label" style="color:#1c1c1c !important" transform="translate(-65.2, -19.5)"><rect></rect><foreignObject width="130.5" height="39"><div style="color: rgb(28, 28, 28) !important; display: table-cell; white-space: nowrap; line-height: 1.5; max-width: 200px; text-align: center;" xmlns="http://www.w3.org/1999/xhtml"><span style="color:#1c1c1c !important" class="nodeLabel "><p>Terraform-to-serving<br>custom models</p></span></div></foreignObject></g></g><g class="node default ext " id="pmap-flowchart-providers-11" data-look="classic" transform="translate(533.1, 618.8)"><path d="M0,15.2 a96.734375,15.2 0,0,0 193.5,0 a96.734375,15.2 0,0,0 -193.5,0 l0,62.2 a96.734375,15.2 0,0,0 193.5,0 l0,-62.2" class="basic label-container outer-path" style="fill:#ffffff !important;stroke:#4a4a4a !important;stroke-width:1.2px !important" label-offset-y="15.2" transform="translate(-96.7, -46.3)"></path><g class="label" style="color:#4a4a4a !important" transform="translate(-92.7, -14.2)"><rect></rect><foreignObject width="185.5" height="39"><div style="color: rgb(74, 74, 74) !important; display: table-cell; white-space: nowrap; line-height: 1.5; max-width: 200px; text-align: center;" xmlns="http://www.w3.org/1999/xhtml"><span style="color:#4a4a4a !important" class="nodeLabel "><p>Model providers<br>Bedrock · cross-region · vLLM</p></span></div></foreignObject></g></g><g class="node default ext " id="pmap-flowchart-tools-12" data-look="classic" transform="translate(1330.4, 755)"><path d="M0,10.3 a43.75,10.3 0,0,0 87.5,0 a43.75,10.3 0,0,0 -87.5,0 l0,57.3 a43.75,10.3 0,0,0 87.5,0 l0,-57.3" class="basic label-container outer-path" style="fill:#ffffff !important;stroke:#4a4a4a !important;stroke-width:1.2px !important" label-offset-y="10.3" transform="translate(-43.8, -38.9)"></path><g class="label" style="color:#4a4a4a !important" transform="translate(-39.8, -14.2)"><rect></rect><foreignObject width="79.5" height="39"><div style="color: rgb(74, 74, 74) !important; display: table-cell; white-space: nowrap; line-height: 1.5; max-width: 200px; text-align: center;" xmlns="http://www.w3.org/1999/xhtml"><span style="color:#4a4a4a !important" class="nodeLabel "><p>Internal tools<br>and data</p></span></div></foreignObject></g></g></g></g></g><defs><filter id="pmap-drop-shadow" height="130%" width="130%"><feDropShadow dx="4" dy="4" stdDeviation="0" flood-opacity="0.1" flood-color="#000000"></feDropShadow></filter></defs><defs><filter id="pmap-drop-shadow-small" height="150%" width="150%"><feDropShadow dx="2" dy="2" stdDeviation="0" flood-opacity="0.1" flood-color="#000000"></feDropShadow></filter></defs><linearGradient id="pmap-gradient" gradientUnits="objectBoundingBox" x1="0%" y1="0%" x2="100%" y2="0%"><stop offset="0%" stop-color="#1c1c1c" stop-opacity="1"></stop><stop offset="100%" stop-color="hsl(0, 0%, 90%)" stop-opacity="1"></stop></linearGradient></svg>